# xmcd
# 
# Track frame offsets:
#     183
#     22108
#     41308
#     57298
#     76363
#     90003
#     101370
#     121403
#     140858
#     156645
#     175060
#     193348
# 
# Disc length: 2785
# 
# Revision: 4
# Processed by: cddbd v1.5.2PL0 Copyright (c) Steve Scherf et al.
# Submitted via: fre:ac v1.0.31
# 
DISCID=9d0adf0c
DTITLE=BLUES_TROTTOIR - Histoires_Courtes
DYEAR=1989
DGENRE=Chanson française
TTITLE0=Costard
TTITLE1=Lilly_Et_Bill
TTITLE2=Chicago_Kid
TTITLE3=Mr._Jones_Vit_À_Paris
TTITLE4=Un_Soir_De_Pluie
TTITLE5=Cyborg
TTITLE6=La_Gosse
TTITLE7=Absence
TTITLE8=24_Jours_Explosifs
TTITLE9=Poker
TTITLE10=J'suis_Snob
TTITLE11=24_Jours_Explosifs_(Instrumental)
EXTD=YEAR: 1989
EXTT0=
EXTT1=
EXTT2=
EXTT3=
EXTT4=
EXTT5=
EXTT6=
EXTT7=
EXTT8=
EXTT9=
EXTT10=
EXTT11=
PLAYORDER=
